<?xml version="1.0" encoding="iso-8859-1"?>
<!-- Uploaded to: SVG Repo, www.svgrepo.com, Generator: SVG Repo Mixer Tools -->
<svg height="800px" width="800px" version="1.1" id="Layer_1" xmlns="http://www.w3.org/2000/svg" xmlns:xlink="http://www.w3.org/1999/xlink" 
	 viewBox="0 0 511.98 511.98" xml:space="preserve">
<path style="fill:#434A54;" d="M255.988,170.657c-5.891,0-10.664-4.773-10.664-10.664V10.663C245.324,4.772,250.097,0,255.988,0
	c5.891,0,10.664,4.772,10.664,10.663v149.331C266.652,165.884,261.879,170.657,255.988,170.657z"/>
<g>
	<path style="fill:#F6BB42;" d="M255.988,511.98c-5.891,0-10.664-4.781-10.664-10.656v-63.998c0-5.906,4.773-10.687,10.664-10.687
		c5.891,0,10.664,4.78,10.664,10.687v63.998C266.652,507.199,261.879,511.98,255.988,511.98z"/>
	<path style="fill:#F6BB42;" d="M159.984,486.262c-1.812,0-3.648-0.469-5.328-1.438c-5.102-2.938-6.843-9.469-3.898-14.562
		l31.999-55.435c2.945-5.094,9.469-6.844,14.57-3.906c5.101,2.953,6.851,9.469,3.898,14.577l-31.999,55.42
		C167.257,484.356,163.672,486.262,159.984,486.262z"/>
	<path style="fill:#F6BB42;" d="M89.729,415.984c-3.688,0-7.273-1.906-9.25-5.328c-2.945-5.109-1.195-11.625,3.906-14.578
		l55.42-31.999c5.102-2.938,11.625-1.188,14.57,3.906s1.203,11.625-3.898,14.562L95.05,414.546
		C93.369,415.515,91.533,415.984,89.729,415.984z"/>
	<path style="fill:#F6BB42;" d="M422.248,415.984c-1.812,0-3.641-0.469-5.328-1.438l-55.42-31.999
		c-5.109-2.938-6.859-9.469-3.906-14.562s9.468-6.844,14.577-3.906l55.421,31.999c5.107,2.953,6.857,9.469,3.904,14.578
		C429.511,414.078,425.935,415.984,422.248,415.984z"/>
	<path style="fill:#F6BB42;" d="M351.984,486.262c-3.688,0-7.265-1.906-9.249-5.344l-31.999-55.42
		c-2.938-5.108-1.188-11.624,3.905-14.577c5.109-2.938,11.625-1.188,14.578,3.906l31.999,55.435
		c2.952,5.094,1.202,11.625-3.906,14.562C355.64,485.794,353.797,486.262,351.984,486.262z"/>
</g>
<path style="fill:#CCD1D9;" d="M298.642,149.33h-85.316c-5.891,0-10.672,4.773-10.672,10.664v75.426
	c0,2.828,1.125,5.547,3.125,7.547s4.719,3.125,7.547,3.125l85.332-0.016c5.891,0,10.672-4.773,10.672-10.664v-75.418
	C309.33,154.103,304.549,149.33,298.642,149.33z"/>
<path style="fill:#F6BB42;" d="M339.126,261.325c-8.438-14.616-20.594-26.772-35.14-35.154c-1.625-0.938-3.469-1.43-5.344-1.43
	l-85.324,0.016c-1.867,0-3.703,0.492-5.328,1.43c-45.842,26.468-61.607,85.301-35.14,131.144
	c17.101,29.593,48.983,47.998,83.216,47.998c0,0,0,0,0.008,0c16.758,0,33.319-4.438,47.912-12.874
	C349.828,365.985,365.593,307.176,339.126,261.325z"/>
<path style="opacity:0.2;fill:#FFFFFF;enable-background:new    ;" d="M339.126,261.325c-8.438-14.616-20.594-26.772-35.14-35.154
	c-1.625-0.938-3.469-1.43-5.344-1.43l-21.217,0.008c1.828,0.016,3.624,0.5,5.218,1.422c14.562,8.382,26.718,20.538,35.154,35.154
	c26.469,45.851,10.688,104.66-35.154,131.129c-11.476,6.624-24.194,10.796-37.257,12.265c3.523,0.391,7.086,0.609,10.68,0.609
	c0,0,0,0,0.008,0c16.758,0,33.319-4.438,47.912-12.874C349.828,365.985,365.593,307.176,339.126,261.325z"/>
<g>
	<path style="fill:#AAB2BC;" d="M202.654,202.656h31.999c5.89,0,10.671-4.773,10.671-10.664c0-5.89-4.781-10.664-10.671-10.664
		h-31.999V202.656z"/>
	<path style="fill:#AAB2BC;" d="M309.33,181.328h-31.998c-5.898,0-10.68,4.773-10.68,10.664s4.781,10.664,10.68,10.664h31.998
		V181.328z"/>
</g>
<path style="fill:#FFCE54;" d="M277.332,266.653h-10.68v-41.904h-21.328v41.904h-10.671c-17.64,0-31.999,14.367-31.999,31.991
	c0,17.655,14.359,31.998,31.999,31.998h42.679c17.624,0,31.998-14.343,31.998-31.998C309.33,281.02,294.956,266.653,277.332,266.653
	z M223.99,298.644c0-5.874,4.781-10.655,10.663-10.655h10.671v21.343h-10.671C228.77,309.332,223.99,304.535,223.99,298.644z
	 M277.332,309.332h-10.68v-21.343h10.68c5.874,0,10.655,4.781,10.655,10.655C287.987,304.535,283.206,309.332,277.332,309.332z"/>
</svg>